<?xml version="1.0" encoding="UTF-8" standalone="no"?>
<!-- Created with Inkscape (http://www.inkscape.org/) -->

<svg
   xmlns:dc="http://purl.org/dc/elements/1.1/"
   xmlns:cc="http://creativecommons.org/ns#"
   xmlns:rdf="http://www.w3.org/1999/02/22-rdf-syntax-ns#"
   xmlns:svg="http://www.w3.org/2000/svg"
   xmlns="http://www.w3.org/2000/svg"
   xmlns:sodipodi="http://sodipodi.sourceforge.net/DTD/sodipodi-0.dtd"
   xmlns:inkscape="http://www.inkscape.org/namespaces/inkscape"
   version="1.1"
   id="svg3713"
   width="1365.3333"
   height="1365.3333"
   viewBox="0 0 1365.3333 1365.3333"
   sodipodi:docname="TestIconVector.svg"
   inkscape:version="0.92.3 (2405546, 2018-03-11)">
  <metadata
     id="metadata3719">
    <rdf:RDF>
      <cc:Work
         rdf:about="">
        <dc:format>image/svg+xml</dc:format>
        <dc:type
           rdf:resource="http://purl.org/dc/dcmitype/StillImage" />
        <dc:title></dc:title>
      </cc:Work>
    </rdf:RDF>
  </metadata>
  <defs
     id="defs3717" />
  <sodipodi:namedview
     pagecolor="#ffffff"
     bordercolor="#666666"
     borderopacity="1"
     objecttolerance="10"
     gridtolerance="10"
     guidetolerance="10"
     inkscape:pageopacity="0"
     inkscape:pageshadow="2"
     inkscape:window-width="1920"
     inkscape:window-height="1027"
     id="namedview3715"
     showgrid="false"
     inkscape:zoom="0.70710678"
     inkscape:cx="898.79198"
     inkscape:cy="582.28905"
     inkscape:window-x="-8"
     inkscape:window-y="-8"
     inkscape:window-maximized="1"
     inkscape:current-layer="svg3713" />
  <path
     style="fill:#000000;stroke-width:1.33333325"
     d="m 558.79797,1301.6666 c -3.70878,-3.057 -80.10982,-214.6745 -80.12262,-221.9256 -0.005,-3.2182 1.03122,-6.1076 2.9913,-8.3353 3.75195,-4.2642 66.14646,-30.0724 72.7039,-30.0724 8.94309,0 9.72849,2.1023 15.44162,41.3333 2.83003,19.4334 5.23003,35.4077 5.33334,35.4986 0.10333,0.091 24.33781,0.9246 53.85447,1.8526 43.28528,1.361 64.04806,1.361 107.33334,0 29.51666,-0.928 53.75118,-1.7617 53.85447,-1.8526 0.10334,-0.091 2.50331,-16.0652 5.33334,-35.4986 5.71313,-39.231 6.49853,-41.3333 15.44162,-41.3333 6.55744,0 68.95195,25.8082 72.7039,30.0724 1.96008,2.2277 2.99698,5.1171 2.9913,8.3353 -0.0133,7.2511 -76.41384,218.8686 -80.12262,221.9256 -4.175,3.4414 -11.32175,3.0015 -15.26262,-0.9394 l -3.27273,-3.2727 V 1239.7272 1182 H 682.66665 577.33332 v 57.7272 57.7273 l -3.27273,3.2727 c -3.94087,3.9409 -11.08762,4.3808 -15.26262,0.9394 z m 560.53533,-170.9651 c -8.1005,-3.3959 -21.3993,-6.7599 -31.7123,-8.0216 -6.4418,-0.7881 -14.7737,-2.0135 -18.5154,-2.7231 -8.7145,-1.6527 -79.94857,-1.5753 -93.10562,0.1011 -25.75492,3.2816 -32.67287,3.8025 -33.92111,2.5543 -0.70893,-0.709 -2.01908,-3.8367 -2.91144,-6.9506 -0.89237,-3.1139 -2.91999,-9.8617 -4.50581,-14.995 -3.03499,-9.8243 -6.17915,-20.5099 -10.59274,-36 -4.14041,-14.5314 -6.70041,-22.1806 -9.49437,-28.369 -1.416,-3.1363 -2.57453,-6.5138 -2.57453,-7.5055 0,-0.9918 -1.56635,-5.3258 -3.48078,-9.631 -1.91442,-4.3053 -4.67234,-10.5278 -6.1287,-13.8278 -4.09294,-9.27424 -9.2569,-19.11376 -11.25124,-21.43835 -0.99327,-1.15771 -1.80595,-2.71471 -1.80595,-3.45997 0,-0.74527 -1.2,-2.44102 -2.66666,-3.76834 -1.46667,-1.32732 -2.66667,-3.00125 -2.66667,-3.71986 0,-0.71862 -4.65,-8.19146 -10.33333,-16.60631 -5.68334,-8.41485 -11.23334,-16.67011 -12.33334,-18.34501 -1.1,-1.6749 -5.03793,-7.45907 -8.75096,-12.85371 -3.71304,-5.39464 -10.45868,-15.20844 -14.99032,-21.80844 -4.53164,-6.6 -11.22426,-16.2 -14.8725,-21.33333 -3.64823,-5.13333 -8.73703,-12.33333 -11.30844,-16 -2.5714,-3.66667 -7.08898,-9.96667 -10.03903,-14 -2.95007,-4.03333 -6.38991,-8.83333 -7.64409,-10.66667 -1.25419,-1.83333 -3.50606,-4.89986 -5.00416,-6.81452 -1.49811,-1.91465 -3.62383,-4.8196 -4.72383,-6.45544 -1.1,-1.63585 -6.66635,-9.06932 -12.36965,-16.51881 -5.70331,-7.44951 -11.37606,-15.04456 -12.60608,-16.87789 -1.23004,-1.83334 -4.40635,-6.03334 -7.05848,-9.33334 -2.65212,-3.3 -8.90611,-11.4 -13.89773,-18 -4.99164,-6.6 -9.75399,-12.6 -10.58299,-13.33333 -0.82901,-0.73333 -4.70043,-5.23333 -8.60316,-10 -10.79593,-13.18582 -27.05607,-29.32624 -30.38564,-30.1619 -4.79069,-1.20239 -7.43511,0.3201 -17.2308,9.92048 -13.80127,13.52608 -21.7434,22.98922 -49.26547,58.70037 -2.93333,3.80613 -8.03333,10.40997 -11.33333,14.6752 -3.3,4.26521 -7.2,9.41817 -8.66666,11.45101 -1.46667,2.03284 -6.69906,8.8828 -11.62754,15.22212 -4.92848,6.33933 -10.02848,12.92556 -11.33333,14.63605 -1.30485,1.71051 -3.41463,4.41051 -4.68836,6 -3.75731,4.68872 -16.42885,21.25228 -23.32997,30.49567 -2.02811,2.71645 -6.68747,8.90021 -10.35414,13.74169 -11.2869,14.90325 -35.95936,50.91263 -43.38434,63.31931 -1.53607,2.56666 -4.23274,7.06666 -5.99259,10 -1.75985,2.93333 -4.26999,7.21097 -5.57807,9.50588 -3.93861,6.90989 -23.04499,45.51324 -23.04499,46.56104 0,0.5359 -1.15092,3.44 -2.5576,6.4537 -3.96354,8.4914 -10.92827,30.3042 -14.09926,44.1573 -1.00858,4.4062 -2.7697,9.8062 -3.91358,12 -1.1439,2.1938 -2.12319,4.8887 -2.17622,5.9887 -0.20444,4.2409 -4.93804,16.5977 -6.8107,17.779 -1.40467,0.886 -2.93107,0.3321 -5.33332,-1.9355 -14.23294,-13.435 -24.61587,-23.8925 -36.2498,-36.5101 -20.60974,-22.3523 -111.79365,-112.66669 -113.75145,-112.66669 -0.94816,0 -2.05304,1.35 -2.4553,3 -1.26898,5.20529 -2.83916,122.88769 -1.67225,125.33329 0.96516,2.0229 3.10304,2.3256 16.06639,2.2749 10.15977,-0.04 16.66273,-0.7181 20.28642,-2.116 2.93334,-1.1317 11.24114,-2.5313 18.46178,-3.1104 13.51182,-1.0837 20.20489,-3.83 20.20489,-8.2907 0,-2.1065 -16.11516,-20.5827 -29.72541,-34.0804 -8.23382,-8.1658 -12.95051,-10.7266 -16.93827,-9.1963 -3.22071,1.2359 -2.35785,3.7901 3.44076,10.1856 7.40537,8.1676 15.07351,18.5697 16.93616,22.9746 1.32875,3.1422 1.19183,3.8274 -0.99908,5 -1.39637,0.7473 -4.22829,1.3797 -6.29317,1.4053 -2.06488,0.026 -8.52736,0.8969 -14.36108,1.9363 -7.61048,1.356 -11.09448,1.485 -12.33334,0.4569 -2.1467,-1.7816 -2.55982,-91.10073 -0.42745,-92.41861 1.27861,-0.79023 5.60725,3.51361 20.76452,20.64552 4.21725,4.76669 17.63259,18.86669 29.81187,31.33329 20.68143,21.1695 28.51165,29.7469 40.77587,44.6667 4.80879,5.8501 20.58676,22.23 28.65723,29.7505 4.25933,3.9691 5.11932,6.8775 2.34804,7.9409 -0.92217,0.3539 -13.07217,0.063 -27,-0.6469 -41.70091,-2.1248 -92.17998,0.1577 -106.94917,4.8359 -19.16383,6.0702 -24.39112,7.449 -31.27813,8.2502 -7.09755,0.8256 -7.78498,0.6494 -11,-2.8197 -3.9433,-4.2548 -4.14359,-5.6643 -1.54471,-10.8695 3.72383,-7.4584 7.50979,-25.5288 10.28869,-49.1081 2.46243,-20.8938 2.72231,-28.3158 2.00803,-57.3472 -0.45125,-18.34094 -1.3792,-36.64094 -2.06209,-40.66664 -2.03056,-11.97014 -2.85939,-27.1867 -1.58875,-29.16841 0.65203,-1.01692 4.9994,-2.63413 9.66083,-3.5938 10.04073,-2.06715 21.44806,-5.06191 32.47532,-8.52576 4.4,-1.38212 10.1,-2.92389 12.66666,-3.42617 2.56667,-0.50228 5.26667,-1.38058 6,-1.95175 0.73334,-0.57119 4.63334,-1.95135 8.66667,-3.06703 10.88272,-3.01033 19.98868,-6.15485 26.14604,-9.02893 3.01365,-1.40668 6.14761,-2.5576 6.96433,-2.5576 0.81672,0 4.35101,-1.26388 7.85396,-2.80863 3.50295,-1.54473 8.769,-3.86181 11.70233,-5.14905 12.84943,-5.63873 10.82826,-4.5346 26.66667,-14.56745 5.13333,-3.25171 11.73333,-7.40765 14.66667,-9.23545 2.93333,-1.82779 6.95904,-4.42939 8.94601,-5.78134 1.98697,-1.35194 4.03972,-2.45808 4.56168,-2.45808 0.52195,0 2.05037,-0.99673 3.39651,-2.21496 1.34612,-1.21822 3.58126,-2.86822 4.96697,-3.66666 1.38572,-0.79844 10.23159,-6.69295 19.65749,-13.09891 38.13915,-25.91985 47.72781,-32.59105 51.29252,-35.68613 1.26689,-1.1 7.79207,-5.9 14.50036,-10.66667 10.68047,-7.58915 21.13821,-15.23517 30.01179,-21.94268 6.76113,-5.11072 13.13773,-9.81447 19.96049,-14.72399 7.44008,-5.35373 15.06985,-10.96206 20.03951,-14.73021 1.46666,-1.11206 6.84582,-5.1527 11.95369,-8.9792 5.10787,-3.82649 10.31485,-7.85725 11.57109,-8.95725 1.25624,-1.1 3.15824,-2.70935 4.22666,-3.57632 23.0801,-18.72853 44.91522,-39.85488 44.91522,-43.45725 0,-2.68592 -21.89883,-23.33362 -37.79227,-35.6331 -7.10711,-5.5 -19.66131,-15.23257 -27.89821,-21.62794 -8.2369,-6.39538 -16.37569,-12.69537 -18.08618,-14 -1.71051,-1.30463 -4.41051,-3.42332 -6,-4.7082 -3.5807,-2.89447 -19.27626,-15.07932 -22.89,-17.77007 -10.52962,-7.84022 -13.65359,-10.18354 -16,-12.00178 -1.46667,-1.13651 -8.36667,-6.34006 -15.33334,-11.56342 -6.96666,-5.22336 -21.32364,-16.04412 -31.9044,-24.04614 -10.58074,-8.00203 -21.38074,-15.98087 -23.99999,-17.73076 -2.61924,-1.7499 -8.36227,-5.85339 -12.76227,-9.11888 -4.4,-3.2655 -12.09255,-8.52376 -17.09453,-11.68503 -5.002,-3.16128 -10.702,-6.78087 -12.66667,-8.04352 -3.47895,-2.23587 -7.29483,-4.5478 -18.2388,-11.05033 -2.93333,-1.7429 -12.23333,-6.55644 -20.66667,-10.69679 -8.43333,-4.14034 -16.27121,-8.00954 -17.41752,-8.59822 -4.39237,-2.25567 -22.85829,-9.3593 -24.34989,-9.36712 -0.86125,-0.004 -3.26584,-0.89483 -5.3435,-1.97848 -2.07768,-1.08364 -6.27768,-2.60842 -9.33334,-3.38836 -3.05566,-0.77996 -7.35574,-2.25056 -9.55574,-3.26799 -9.49324,-4.39035 -32.51887,-10.80236 -47.69868,-13.28281 -5.70095,-0.93156 -10.7327,-2.06107 -11.18166,-2.51004 -0.44896,-0.44896 0.521,-3.98455 2.15548,-7.85687 3.82987,-9.07355 14.27523,-19.47211 59.99504,-59.72623 60.04419,-52.86602 92.06315,-83.56982 92.06315,-88.28169 0,-1.40994 -1.49948,-3.00209 -3.56807,-3.78856 -5.37724,-2.04442 -45.90039,-3.84321 -87.38502,-3.87893 -33.85426,-0.0292 -37.05642,0.16384 -38.18528,2.30151 -1.4493,2.74444 1.2507,32.90182 4.38698,49 1.14296,5.86666 2.5354,13.30008 3.09432,16.5187 0.7608,4.38118 1.78963,6.13814 4.09334,6.99034 2.58698,0.95698 4.17778,0.1244 9.98709,-5.22703 3.80049,-3.50095 10.49771,-9.34659 14.88272,-12.99035 17.38943,-14.44986 26.33669,-28.625 18.06795,-28.625 -2.31871,0 -11.00079,6.38082 -19.21916,14.12492 -3.09818,2.91939 -12.81987,8.54175 -14.76964,8.54175 -1.1006,0 -2.37075,-1.65 -2.82256,-3.66667 -0.45182,-2.01666 -1.3599,-5.76666 -2.01796,-8.33333 -0.65808,-2.56667 -1.19986,-7.41208 -1.20394,-10.76759 -0.0107,-8.28461 3.36348,-11.30862 14.65923,-13.14026 8.95403,-1.45194 71.59072,-2.0105 75.0851,-0.66958 3.51866,1.35024 0.59731,6.66444 -7.75654,14.10983 -4.40263,3.92384 -9.25099,8.33427 -10.77415,9.80093 -6.10591,5.87948 -37.79497,35.18028 -77.05784,71.25033 -2.84354,2.61232 -11.14776,10.44967 -18.45378,17.41634 -7.30603,6.96666 -13.8258,12.86544 -14.48838,13.10837 -2.82882,1.03723 -3.27068,-7.89028 -2.13357,-43.10837 1.23825,-38.35072 -0.14509,-74.92752 -3.13076,-82.78043 -0.80092,-2.10657 -2.30483,-8.34276 -3.34203,-13.85818 -1.03718,-5.51543 -2.81629,-13.32806 -3.95354,-17.36139 -1.13726,-4.03333 -1.90127,-9.43333 -1.69779,-12 l 0.36995,-4.66667 7.33333,0.40288 c 4.03333,0.22158 10.74952,1.2505 14.92488,2.2865 4.17535,1.03598 12.87535,2.53133 19.33333,3.32298 6.45798,0.79166 13.84179,1.95576 16.40846,2.5869 9.81686,2.41396 23.86002,3.08421 81.63162,3.89608 58.81273,0.82649 59.67121,0.87762 62.51507,3.72344 2.27916,2.28073 2.93358,4.65588 3.1227,11.33333 0.24127,8.51813 3.38192,24.70501 6.94246,35.78123 1.06081,3.3 2.77002,8.7 3.79826,12 3.02338,9.7032 7.31846,21.68353 9.39351,26.2015 1.06135,2.31083 1.92971,4.89196 1.92971,5.73584 0,0.8439 1.13384,3.75322 2.51964,6.46516 1.3858,2.71196 4.15186,8.53083 6.14682,12.93083 1.99496,4.4 5.35232,11.3 7.4608,15.33333 2.10849,4.03333 5.05108,9.73333 6.53909,12.66667 1.48802,2.93333 4.17491,7.73333 5.97087,10.66666 1.79596,2.93334 4.03731,6.83614 4.98075,8.67291 1.8095,3.52285 7.33316,12.10223 19.607,30.45369 4.09293,6.11963 8.0517,12.11963 8.79728,13.33334 1.28073,2.08489 15.60341,21.78566 20.02193,27.54006 1.12617,1.46667 3.83631,5.06667 6.02251,8 5.91334,7.93425 17.49512,23.12095 23.61741,30.96853 1.27373,1.6327 3.35399,4.3327 4.62277,6 1.26879,1.66731 5.33068,6.93147 9.02646,11.69814 3.69577,4.76666 7.62585,9.86666 8.73352,11.33333 1.10765,1.46667 4.99997,6.56667 8.64957,11.33333 3.64961,4.76667 7.38144,9.72832 8.29295,11.02588 4.95437,7.05272 15.53329,20.79552 30.82001,40.03747 20.69309,26.04712 36.20617,42.26998 40.42057,42.26998 5.29605,0 35.72723,-32.42958 53.08337,-56.56934 1.46667,-2.03991 5.36667,-7.21879 8.66667,-11.50863 3.3,-4.28984 7.5,-9.93036 9.33333,-12.53449 5.44321,-7.73176 6.48409,-9.15976 10.32943,-14.17117 2.01881,-2.631 4.87057,-6.44427 6.33724,-8.47395 1.46666,-2.02968 6.56666,-8.71901 11.33333,-14.86521 10.55305,-13.60722 22.62763,-29.42466 34.00349,-44.54387 4.69003,-6.23333 10.8079,-14.30884 13.59526,-17.94556 5.31157,-6.93012 8.00234,-10.83809 24.49694,-35.57849 10.98191,-16.47184 14.37916,-21.71829 16.71234,-25.80928 0.83648,-1.46667 4.6093,-7.96572 8.38408,-14.44236 3.77476,-6.47663 7.7387,-13.67663 8.80874,-16 1.07004,-2.32336 2.53481,-5.12431 3.25503,-6.22431 0.72022,-1.1 2.87296,-5.6 4.78384,-10 1.91089,-4.4 4.29329,-9.52421 5.29424,-11.38713 1.00093,-1.86292 2.70201,-5.76292 3.78017,-8.66666 1.07817,-2.90375 3.55144,-9.47954 5.49615,-14.61287 1.94472,-5.13333 4.37524,-12.33333 5.40117,-16 1.02593,-3.66667 3.43321,-12.06667 5.34949,-18.66667 1.9163,-6.6 4.40707,-15.75 5.53507,-20.33333 1.89457,-7.69812 2.32965,-8.33333 5.70781,-8.33333 3.69272,0 6.45871,2.55333 24.61452,22.72197 6.6938,7.43592 28.38288,30.91811 36.78166,39.82252 2.56666,2.72119 13.36662,14.19305 24.00002,25.49302 31.3827,33.35016 55.5073,55.96248 59.7053,55.96248 3.2267,0 7.097,-9.43286 8.5766,-20.90316 2.1562,-16.71526 1.7166,-104.02207 -0.5374,-106.73799 -1.8944,-2.28263 -13.4587,-1.70548 -32.4112,1.61756 -5.8667,1.02862 -14.2948,2.24952 -18.7293,2.71308 -4.4345,0.46357 -11.3345,1.90945 -15.3333,3.21308 -10.5288,3.43234 -10.0546,5.92552 4.0626,21.35801 16.5905,18.13624 22.7564,24.00091 28.1752,26.79887 4.7676,2.46172 4.8787,2.45932 7.2454,-0.1559 2.3437,-2.58972 2.2376,-2.82946 -4.255,-9.61308 -12.5236,-13.08488 -16.6921,-22.25716 -11.9165,-26.22058 2.5548,-2.12027 22.8453,-5.59766 26.8286,-4.59791 l 3.1517,0.79104 0.3853,43.53516 c 0.2128,24.03933 -0.1468,44.295 -0.8029,45.23193 -1.7105,2.44244 -6.0093,0.67245 -10.0324,-4.13073 -1.8953,-2.26283 -4.6461,-5.41788 -6.1127,-7.01122 -1.4667,-1.59333 -8.0667,-8.7814 -14.6667,-15.97348 -6.6,-7.19208 -13.5,-14.66581 -15.3333,-16.60829 -1.8334,-1.94249 -9.3334,-10.047 -16.6667,-18.01002 -7.3333,-7.96303 -14.23332,-15.42844 -15.33332,-16.58979 -1.1,-1.16135 -8.26087,-8.99543 -15.91304,-17.40907 -7.65216,-8.41362 -15.90216,-17.27638 -18.33334,-19.69502 -2.48122,-2.46844 -4.42029,-5.75999 -4.42029,-7.5034 0,-6.60408 0.81037,-6.71314 55.86899,-7.51903 31.4929,-0.46095 53.2753,-1.32191 56.131,-2.2186 2.5667,-0.80593 8.2667,-1.87549 12.6667,-2.3768 4.4,-0.50131 9.927,-1.71273 12.2823,-2.69205 2.3553,-0.97932 7.1553,-2.19466 10.6667,-2.70074 3.5114,-0.50609 8.3972,-1.74194 10.8573,-2.74636 9.4366,-3.8526 14.5234,1.2333 12.9671,12.96479 -0.5085,3.83384 -1.8001,9.06575 -2.87,11.62648 -1.0699,2.56072 -2.5743,8.91001 -3.343,14.10955 -0.7687,5.19952 -2.3399,13.95368 -3.4916,19.45368 -3.1633,15.10698 -3.033,94.67114 0.1814,110.7839 1.2563,6.29781 2.089,13.49781 1.8504,16 -0.4274,4.48029 -0.5657,4.57293 -9.1006,6.09599 -25.0026,4.46168 -45.8297,9.79308 -62,15.87093 -5.1334,1.92944 -11.7091,4.3902 -14.6129,5.46837 -2.9037,1.07816 -6.8037,2.73534 -8.6667,3.68262 -1.8629,0.94728 -6.9871,3.34614 -11.3871,5.33081 -4.4,1.98467 -8.9,4.13496 -10,4.7784 -1.1,0.64345 -6.79999,3.63581 -12.66666,6.64969 -5.86666,3.01388 -13.06666,6.90692 -16,8.6512 -2.93333,1.74428 -7.13333,4.19371 -9.33333,5.44319 -5.34376,3.03496 -15.51796,9.59668 -33.80928,21.80489 -22.80704,15.22215 -28.28448,18.97933 -35.54717,24.38315 -3.65395,2.71873 -10.10626,7.51873 -14.33844,10.66666 -4.23219,3.14794 -12.93219,9.75591 -19.33333,14.68439 -6.40115,4.92848 -12.83844,9.86581 -14.30511,10.97185 -1.46667,1.10604 -9.56667,7.40623 -18,14.00042 -8.43333,6.59418 -16.53333,12.89494 -18,14.00169 -1.46667,1.10675 -6.56667,5.03607 -11.33333,8.73184 -9.67648,7.50252 -11.6813,9.03032 -19.33334,14.73336 -2.93333,2.1862 -6.53333,4.87104 -8,5.96632 -14.65184,10.94174 -35.62611,28.65328 -45.66666,38.5628 -15.64619,15.44201 -15.70697,16.07453 -2.66667,27.74458 21.06464,18.8512 28.82861,25.4736 40.69,34.70716 25.34831,19.73252 34.79439,27.02425 38.37008,29.61911 2.02105,1.46666 8.30071,6.26666 13.95477,10.66666 5.65407,4.4 15.80787,12.2 22.56402,17.33334 6.75614,5.13333 18.08977,13.84418 25.18585,19.35745 7.09607,5.51328 14.40195,11.0638 16.23528,12.33451 22.40556,15.52956 27.22213,18.74714 32.5694,21.75713 2.14649,1.20828 6.69026,4.15619 10.09726,6.55091 3.407,2.39472 7.95078,5.34262 10.09727,6.5509 2.14651,1.20827 5.70273,3.3617 7.90273,4.7854 2.2,1.4237 6.1,3.82576 8.66667,5.33794 2.56667,1.51216 7.36667,4.51934 10.66667,6.68264 3.3,2.16328 6.9,4.36462 8,4.89186 1.1,0.52724 4.60284,2.78696 7.78409,5.0216 6.2998,4.42523 6.46908,4.53212 18.30963,11.56064 7.4325,4.41191 15.3637,8.10025 31.2396,14.52769 11.434,4.62912 33.0302,11.37259 45.3333,14.15544 15.3995,3.48322 26.801,7.40824 29.2946,10.08475 5.7101,6.12909 3.6205,14.19769 -5.8508,22.59105 -15.496,13.73246 -25.1168,22.59367 -40.9549,37.72126 -9.2645,8.84885 -27.2645,25.98658 -40,38.08378 -49.25595,46.7872 -57.58127,56.1126 -53.62607,60.0678 0.66048,0.6605 20.98655,2.1685 45.16907,3.3512 54.3309,2.6571 74.7486,1.5587 80.9193,-4.3532 3.4272,-3.2834 3.7155,-4.3463 3.7155,-13.6967 0,-5.5754 -0.8417,-13.4132 -1.8704,-17.4173 -1.0287,-4.004 -2.5218,-11.4801 -3.318,-16.6134 -1.8915,-12.1951 -5.685,-22.5416 -8.4608,-23.0762 -1.2068,-0.2324 -5.7015,2.7647 -9.9884,6.6602 -4.2868,3.8954 -11.2846,10.0826 -15.5506,13.7493 -11.4848,9.8713 -18.1451,18.7447 -18.1451,24.1742 0,6.7642 2.9239,5.7608 14.3747,-4.933 10.7778,-10.0653 18.8357,-15.0496 22.2263,-13.7485 2.9694,1.1394 3.8015,5.7343 3.9422,21.7676 l 0.1234,14.073 -45,0.3511 c -44.65285,0.3484 -44.99996,0.3299 -44.99996,-2.3939 0,-2.8706 2.05955,-5.1237 12.75839,-13.9572 8.96407,-7.4012 21.42467,-18.9831 37.29637,-34.6666 23.7371,-23.4555 42.4451,-41.20102 48.4949,-46.00002 3.2357,-2.56667 10.969,-9.61667 17.1852,-15.66667 6.2162,-6.05 12.4074,-11 13.7582,-11 3.276,0 4.2728,4.52175 3.2876,14.91335 -0.4391,4.631 -1.1527,24.5394 -1.5858,44.24094 -0.6434,29.2637 -0.4028,38.0503 1.3145,48 1.1561,6.6985 2.717,16.8904 3.4685,22.6487 0.7516,5.7582 1.7877,11.151 2.3024,11.9838 0.9843,1.5926 5.3676,19.6791 6.6436,27.4132 0.6116,3.7068 0.1701,4.9776 -2.4213,6.9703 -3.4433,2.6479 -5.7169,2.9247 -9.8359,1.1979 z m -695.48916,-79.4416 c 4.83612,-4.0694 15.04084,-19.1043 18.59593,-27.398 6.64493,-15.502 8.61325,-37.06459 4.84333,-53.05778 -6.08041,-25.79501 -27.83297,-47.46909 -53.64846,-53.4549 -9.11659,-2.11386 -26.82714,-2.14398 -36.96828,-0.0629 -17.87709,3.6686 -44.82609,20.44362 -45.76079,28.48483 -0.37386,3.21631 2.9593,7.05581 26.58171,30.61979 14.85504,14.81829 32.7474,32.92456 39.76078,40.23626 16.31158,17.0052 38.95795,38.0207 40.98266,38.0313 0.86041,0 3.3863,-1.525 5.61312,-3.3987 z m -13.03752,-22.4515 -7.12484,-7.2145 8.21902,-10.797 c 4.52047,-5.9383 8.64207,-10.7601 9.15911,-10.7151 0.51704,0.045 3.75981,1.395 7.20616,3 l 6.26607,2.9182 -2.61303,7.3333 c -2.70421,7.5893 -10.7678,21.6162 -12.81952,22.3001 -0.64248,0.2142 -4.37431,-2.8571 -8.29297,-6.825 z m -25.48872,-25.4907 -7.25767,-7.34898 7.54032,-7.54032 7.54032,-7.54032 4.46108,3.88928 c 2.45359,2.13911 5.90648,4.83563 7.67309,5.99228 l 3.21202,2.10302 -3.83452,5.23032 c -4.73138,6.45362 -10.21754,12.56362 -11.28088,12.56362 -0.43786,0 -4.06204,-3.307 -8.05376,-7.3489 z m 45.20685,-14.13695 -3.47524,-1.27537 2.80857,-7.26327 c 1.54472,-3.99479 3.18007,-7.27349 3.63412,-7.28603 0.95488,-0.0264 2.47163,8.2742 2.49311,13.6439 0.0159,3.97508 -0.26528,4.08737 -5.46056,2.18077 z m -69.66733,-10.32133 -7.72882,-7.81031 6.36247,-5.43847 c 6.46309,-5.52448 12.21713,-9.1797 12.85839,-8.16822 0.19441,0.30665 2.85446,3.61676 5.91124,7.35578 l 5.55776,6.79823 -7.61612,7.53664 -7.61612,7.53665 z m 47.80924,-3.45475 -5.33334,-4.55563 8.56452,-8.69368 c 4.7105,-4.7815 9.10283,-8.36097 9.76075,-7.95436 2.28728,1.41362 -4.11192,25.83711 -6.7544,25.77914 -0.49731,-0.0107 -3.3042,-2.06987 -6.23753,-4.57547 z m -73.23729,-21.97431 -7.47958,-7.55844 3.94008,-2.91304 c 5.48874,-4.058 18.64991,-10.5229 23.44345,-11.51569 3.82123,-0.7914 4.12107,-0.51441 6.70883,6.19752 l 2.70883,7.02593 -10.92103,8.16108 -10.92101,8.16108 z m 54.09865,2.81544 c -2.30708,-2.91293 -4.1947,-5.94262 -4.1947,-6.73265 0,-2.00252 17.52503,-7.12556 22.59999,-6.6066 l 4.17328,0.42676 -9.19193,9.10437 -9.19194,9.10436 z M 375.2551,933.18203 c -1.16512,-2.25309 -1.81335,-4.4016 -1.4405,-4.77445 0.37286,-0.37286 5.0671,0.0723 10.43166,0.98916 5.36454,0.91688 8.85373,1.96196 7.75373,2.32238 -1.1,0.36042 -4.84096,1.75875 -8.31325,3.10738 l -6.31324,2.45206 z m 606.03364,97.93657 c 20.99676,-7.6931 25.14376,-32.80986 8.2794,-50.14533 -7.66314,-7.87721 -14.21743,-11.37956 -23.29152,-12.44604 -12.03291,-1.41423 -23.54735,5.93096 -28.43103,18.13645 -1.74417,4.35912 -1.88191,6.74784 -0.75724,13.1327 0.75609,4.29242 2.47052,9.59882 3.80984,11.79202 3.08255,5.0477 10.68956,13.7355 12.06105,13.7746 0.5724,0.016 2.54074,1.2029 4.37407,2.637 4.59603,3.595 6.42224,3.3309 2.89908,-0.4193 -3.1316,-3.3334 -3.99985,-12.3659 -1.61671,-16.8188 1.89178,-3.5348 8.6033,-5.8719 13.97096,-4.8649 6.06894,1.1385 10.08,6.2914 10.08,12.9495 0,5.2514 -1.62506,7.6971 -8.02894,12.0835 -4.33808,2.9715 -1.188,3.0608 6.65104,0.1886 z m 46.84556,-45.96026 c 7.3678,-2.45194 15.1196,-10.88108 17.095,-18.58879 3.0448,-11.88003 -1.0169,-22.87924 -12.4206,-33.63547 -4.3148,-4.0698 -8.8843,-6.98342 -12.4754,-7.95464 -3.1167,-0.84289 -5.3254,-1.40271 -5.8854,-1.55808 -0.9688,-0.26874 -2.1188,-0.40055 -5.0521,-0.40055 -2.9333,0 -3.0833,0.025 -4.8333,0.22917 -0.6373,0.0744 -2.3134,0.26684 -4.4533,1.03856 -6.23617,1.24724 -12.99249,8.35393 -16.1361,16.75601 -3.1073,8.30497 -2.85051,12.4592 1.35829,21.97388 2.74844,6.21331 14.02092,18.18987 18.77621,19.94896 2.8018,1.03645 2.8238,0.96857 0.7243,-2.23567 -3.4082,-5.2015 -2.791,-12.59934 1.4175,-16.99212 4.8578,-5.0704 13.6521,-5.29261 18.4778,-0.46689 7.289,7.28897 2.4509,21.14844 -7.8324,22.43725 -3.6762,0.46075 -3.5144,0.55778 1.2395,0.7433 3.0073,0.11733 7.5073,-0.46535 10,-1.29492 z M 691.07276,687.48682 c 6.12905,-5.614 6.21405,-8.85549 0.34952,-13.32858 -6.50175,-4.95914 -9.41018,-4.51387 -13.57123,2.07768 -3.29237,5.21545 -3.3858,5.78722 -1.47055,9 1.76943,2.96814 6.7417,6.6837 9.02559,6.74441 0.40669,0.0107 2.95669,-2.01127 5.66667,-4.49351 z M 453.6428,449.69167 c 16.34551,-16.28416 16.53371,-17.41193 4.86967,-29.18059 l -8.1542,-8.22732 -1.84441,-17.67025 c -1.01443,-9.71865 -2.51851,-18.48249 -3.3424,-19.47523 -0.8239,-0.99273 -3.06963,-1.80496 -4.99052,-1.80496 -2.77359,0 -9.60171,6.10464 -33.17007,29.65556 -29.43939,29.41756 -32.31351,33.18538 -28.01088,36.7207 0.91667,0.7532 9.60881,2.28021 19.31587,3.39337 19.34204,2.21804 20.52789,2.73339 30.96174,13.45531 3.26935,3.35962 7.15862,6.1084 8.64282,6.1084 1.63204,0 7.84568,-5.12783 15.72238,-12.97499 z m 559.3392,-14.16828 c 20.7537,-10.77248 27.4815,-35.62192 14.8199,-54.73753 -4.9937,-7.5391 -15.0225,-14.38608 -20.281,-13.84647 -3.425,0.35145 -4.1105,1.25668 -6.3567,8.39393 l -2.51765,8 3.60615,2.66667 c 9.9535,7.36031 12.534,13.27381 9.2364,21.16601 -2.1711,5.19636 -8.9793,10.15442 -13.95428,10.16234 -5.22203,0.008 -11.85314,-3.93502 -13.56439,-8.06635 -2.19012,-5.28741 -0.92175,-10.78744 5.54312,-24.03675 9.57519,-19.62366 8.59375,-34.61052 -3.05239,-46.61107 -9.79281,-10.09082 -23.25145,-13.84504 -36.17012,-10.0895 -20.44905,5.94471 -31.64192,26.30645 -25.69869,46.7504 3.75004,12.89968 20.25659,26.92792 27.43287,23.31408 1.11388,-0.56093 2.72324,-3.62296 3.57636,-6.80452 0.85312,-3.18155 1.9411,-6.79596 2.41776,-8.03201 0.63644,-1.65043 -0.59039,-3.16716 -4.61863,-5.71008 -7.59679,-4.79564 -10.36892,-10.88652 -8.21968,-18.06008 2.78312,-9.28922 13.64311,-13.39415 22.84564,-8.63534 8.55487,4.4239 8.61807,10.16311 0.30664,27.8455 -6.03141,12.83172 -6.33333,14.02472 -6.33333,25.02585 0,10.68988 0.29845,11.97372 4,17.20641 4.98977,7.0538 12.11024,12.86202 18.83666,15.3652 6.63742,2.47007 22.30476,1.76495 28.14536,-1.26669 z M 352.90532,422.3988 c 3.02927,-1.0954 4.43887,-2.46422 4.4624,-4.33333 0.0189,-1.50268 0.61452,-8.69883 1.32356,-15.99143 1.15227,-11.85128 1.82787,-14.14373 6.36216,-21.58832 5.12826,-8.41974 20.17054,-21.7944 28.94655,-25.73744 2.2,-0.98845 10.39963,-2.08618 18.2214,-2.4394 15.8398,-0.71529 15.72164,-0.63025 15.7604,-11.34189 0.0233,-6.4285 -2.79664,-7.63366 -17.86163,-7.63366 -20.85162,0 -37.94882,9.18897 -54.82569,29.46634 -13.36247,16.05485 -15.40757,20.99349 -16.23301,39.20032 -0.98084,21.63437 1.26707,24.94664 13.84386,20.39881 z m 30.44354,-6.40472 c 2.20494,-0.83832 3.12889,-2.59369 3.74986,-7.12417 0.4532,-3.30647 1.98775,-7.92539 3.41011,-10.26427 3.76207,-6.18622 14.22324,-14.3429 20.61731,-16.07553 3.04728,-0.82573 6.20642,-1.68171 7.0203,-1.90217 1.64052,-0.44436 4.52022,-10.56426 4.52022,-15.88504 0,-3.30082 -0.27126,-3.40958 -8.50384,-3.40958 -9.42256,0 -16.63132,2.4538 -22.98176,7.82279 -2.28375,1.9308 -6.03375,5.00396 -8.33334,6.82924 -2.29958,1.82529 -4.96468,5.64855 -5.18106,6.14184 -0.25,0.56992 -1.6516,3.20977 -3.72525,8.48416 -2.75572,7.00924 -4.73346,12.29967 -5.39075,18.97019 l -0.93068,9.44489 6.4015,-0.95997 c 3.52083,-0.52798 7.71815,-1.46055 9.32738,-2.07238 z m 265.98446,656.05382 c -34.12904,-2.8711 -32.28419,-2.0957 -57.55673,-24.1922 -23.8704,-20.8707 -32.13419,-31.5209 -34.59679,-44.588 -2.74543,-14.5678 0.55032,-81.53119 4.19199,-85.17286 0.71217,-0.71217 1.29486,-2.68328 1.29486,-4.38022 0,-1.69696 1.2921,-5.02696 2.87131,-7.4 2.84452,-4.27438 40.46595,-37.77405 48.36039,-43.06209 8.44838,-5.65911 16.01417,-6.41178 69.80007,-6.94394 64.39362,-0.6371 57.57056,-2.60852 90.75908,26.22338 11.30272,9.81901 19.22001,17.70847 19.70329,19.63403 0.44436,1.7705 0.0581,5.02924 -0.85828,7.24168 -3.0712,7.41451 -26.40798,18.80044 -42.82149,20.89243 -5.80333,0.73967 -8.4494,-0.56119 -19.83766,-9.75256 l -8.68996,-7.0136 -19.64338,-1.37844 c -27.42874,-1.92477 -55.45232,0.0607 -65.8674,4.66677 -9.30036,4.11306 -15.81468,9.3689 -18.97666,15.31062 -1.96654,3.69534 -2.5877,9.25977 -3.35897,30.09021 l -0.94626,25.55647 3.57288,5.77686 c 5.88709,9.51866 13.64021,16.69396 19.748,18.27636 3.03511,0.7863 14.51837,2.7351 25.51837,4.3306 17.38095,2.5211 21.48414,2.7058 31.33334,1.4104 6.23333,-0.8198 16.13333,-1.8813 22,-2.3589 11.6178,-0.9457 14,-2.0388 14,-6.4237 0,-3.0141 -12.82807,-16.79122 -15.63452,-16.79122 -0.85287,0 -5.45823,-3.90756 -10.23415,-8.68348 -8.98423,-8.98423 -12.08256,-15.91368 -9.18133,-20.53418 1.59834,-2.54553 19.22028,-3.69757 59.04999,-3.8604 36.52052,-0.14929 38.60771,0.8374 43.17699,20.41139 2.99759,12.84113 2.97428,39.20669 -0.0403,45.55939 -1.33804,2.8196 -10.95528,12.374 -24.60482,24.4438 -19.90427,17.6007 -23.04832,19.8961 -28.13671,20.5418 -7.68792,0.9757 -61.48093,4.8303 -64.59544,4.6287 -1.35652,-0.088 -14.76641,-1.1944 -29.79974,-2.4591 z M 1077.0309,865.63571 c -24.3329,-24.33285 -31.6976,-32.46586 -31.6976,-35.00425 0,-1.81867 2.1509,-6.30476 4.7799,-9.96908 14.6811,-20.46335 20.2079,-42.2098 14.671,-57.72728 -2.4521,-6.87237 -9.0502,-16.45066 -15.4509,-22.42982 -12.7744,-11.93312 -31.6276,-15.51027 -49.1922,-9.33364 -10.81716,3.80388 -18.06799,7.7183 -25.99112,14.03154 -9.76463,7.78055 -9.57279,7.89647 -44.46944,-26.86986 -17.11391,-17.05 -31.46115,-32.36166 -31.88275,-34.02588 -1.08439,-4.28048 1.76844,-10.31704 7.07955,-14.98026 8.02569,-7.04665 9.12022,-6.45845 34.3696,18.46982 l 22.75304,22.46368 6.66666,-4.57976 c 15.58912,-10.70916 32.94126,-16.2952 50.71986,-16.3279 22.8316,-0.042 39.1157,7.47768 58.7825,27.14456 20.328,20.328 27.1187,35.31943 27.1485,59.93397 0.013,10.56771 -0.648,15.07564 -3.42,23.33334 -3.9899,11.88562 -11.6338,26.9798 -15.3798,30.36989 -2.5385,2.29732 -2.0637,2.89227 20.1078,25.19541 26.2324,26.38806 26.3728,26.68896 16.8832,36.17856 -4.5647,4.56475 -6.793,5.82456 -10.3024,5.82456 -4.0671,0 -7.3853,-2.90749 -36.1754,-31.6976 z m -820.36424,18.84735 c -9.23021,-4.69737 -143.3359,-138.2117 -148.09179,-147.43876 -4.60694,-8.93806 -4.56763,-22.51605 0.0918,-31.71098 C 110.5,701.71541 112,697.9394 112,696.9422 c 0,-2.18131 -20.368674,-22.27555 -22.579766,-22.27555 -2.568263,0 -8.631117,3.55151 -14.656209,8.58532 -4.665964,3.89831 -6.758044,4.74801 -11.690179,4.74801 -5.053918,0 -6.726562,-0.71938 -10.540514,-4.53333 -3.736947,-3.73695 -4.533333,-5.53135 -4.533333,-10.21444 0,-5.47531 0.591664,-6.28111 16.333333,-22.24487 8.983333,-9.11008 17.953537,-17.41358 19.933786,-18.45224 1.980249,-1.03865 7.140226,-1.88845 11.466616,-1.88845 6.579286,0 8.716876,0.62916 13.066216,3.84577 9.57609,7.08215 50.7931,49.96168 53.97701,56.15423 3.20718,6.23781 3.4586,9.88699 2.39545,34.76993 -0.3944,9.23078 -0.0419,10.90036 4.08269,19.33334 3.9993,8.17694 9.09136,13.8505 44.62963,49.7261 22.97756,23.19567 41.97398,41.29172 44.46608,42.35853 3.7505,1.60551 4.85433,1.59499 8,-0.0763 5.31588,-2.82426 139.96217,-138.15521 141.44999,-142.16925 0.86762,-2.3408 0.72574,-4.61188 -0.45814,-7.33334 -0.94326,-2.1683 -19.93124,-22.0079 -42.19551,-44.08797 -51.56884,-51.14221 -51.84573,-51.30017 -83.96961,-47.90353 -16.12775,1.70528 -20.62993,-0.96225 -48.98535,-29.02372 -30.30587,-29.99172 -30.85886,-30.75765 -30.85886,-42.74124 v -9.41399 l 18.38596,-18.38597 c 17.93858,-17.93857 18.52582,-18.38596 24.13333,-18.38596 4.75845,0 6.5274,0.78003 10.28071,4.53333 3.81394,3.81395 4.53333,5.4866 4.53333,10.54052 0,4.93214 -0.84971,7.02422 -4.74801,11.69018 -5.03382,6.02509 -8.58532,12.08794 -8.58532,14.65621 0,2.10288 20.04073,22.57976 22.09882,22.57976 0.90002,0 4.84596,-1.49413 8.76878,-3.32031 9.88957,-4.60384 22.0562,-4.62277 31.20394,-0.0485 4.99136,2.49588 23.35732,20.08548 75.52589,72.33333 76.73907,76.85567 75.69775,75.58444 75.72287,92.4404 0.009,6.65381 -0.77483,10.31139 -3.28984,15.33333 -4.60029,9.18583 -156.92736,161.46348 -166.56238,166.50836 -9.15099,4.79142 -22.60915,4.75088 -32.13475,-0.0968 z m 886.30354,-40.42479 c -6.5854,-4.36793 -12.3478,-8.91701 -12.8052,-10.10905 -2.7111,-7.06488 2.3932,-15.28257 9.4924,-15.28257 5.238,0 31.2614,10.05086 33.3229,12.87012 3.1408,4.2953 1.9332,8.56728 -4.1382,14.63865 -8.0404,8.04043 -10.9117,7.80547 -25.8719,-2.11715 z m -486.30355,-2.67414 c -1.46667,-0.6582 -4.8676,-1.2389 -7.55761,-1.29043 -2.69003,-0.0516 -5.84003,-0.45791 -7,-0.90304 -2.27083,-0.8714 -2.90562,-6.541 -0.873,-7.79723 0.67984,-0.42016 1.96422,-3.00557 2.85421,-5.74536 1.44605,-4.45169 12.12449,-24.2489 14.91313,-27.64809 0.60162,-0.73333 3.4695,-4.93333 6.37308,-9.33333 8.70476,-13.19092 9.6528,-14.51711 13.05775,-18.26606 l 3.26911,-3.59938 5.02229,2.56218 c 4.73543,2.41584 7.23731,4.9303 11.94104,12.0011 1.1,1.65354 3.21676,4.57298 4.70391,6.48764 2.4747,3.18608 5.07058,7.0903 12.06638,18.14785 4.91315,7.76572 5.83108,9.38743 8.40731,14.85311 1.43093,3.03588 3.25136,5.92129 4.04539,6.41202 4.00064,2.47254 -1.30576,9.30666 -8.40316,10.82247 -2.28424,0.48784 -4.99386,1.56771 -6.02136,2.39969 -2.30176,1.86378 -52.86479,2.66216 -56.79847,0.89686 z m -429.67646,-53.7271 c -18.51128,-18.52196 -33.65686,-34.5743 -33.65686,-35.67188 0,-2.60131 126.72734,-129.3185 129.32886,-129.3185 1.09188,0 17.13956,15.14559 35.66152,33.65687 28.96097,28.94428 33.67628,34.21362 33.67628,37.63322 0,3.46595 -7.91321,11.89636 -61.6473,65.67647 -54.11944,54.1658 -62.13931,61.7001 -65.67647,61.7001 -3.48861,0 -8.54463,-4.51806 -37.68603,-33.67628 z m 776.04591,3.97347 c -24.48696,-24.48699 -27.03612,-27.46077 -27.03612,-31.53977 0,-3.50679 1.16041,-5.60752 5.24253,-9.49075 17.05889,-16.22773 45.53759,-17.69692 62.44869,-3.22166 3.0138,2.57969 7.1661,8.12489 9.2275,12.32266 3.3098,6.73999 3.7479,9.11327 3.7479,20.299 0,11.58705 -0.3696,13.42228 -4.3371,21.53185 -5.2431,10.71708 -11.9873,17.13482 -18.0064,17.13482 -3.7502,0 -7.4348,-3.18396 -31.287,-27.03615 z m 156.5192,-3.56045 c -17.5476,-0.65366 -19.9909,-1.0286 -21.6666,-3.32491 -2.3391,-3.20531 -2.4236,-7.50404 -0.2071,-10.53523 1.0254,-1.40228 11.0417,-5.08964 25.6667,-9.44873 64.2444,-19.1487 88.6958,-26.09453 91.8604,-26.09453 4.4954,0 8.7913,4.37303 8.7913,8.94915 0,2.87461 -3.9053,7.52109 -19.0509,22.66666 l -19.0508,19.05085 -23.2825,-0.26326 c -12.8054,-0.14479 -32.1826,-0.59479 -43.0605,-1 z m -21.6159,-64.67613 c -3.2089,-3.20888 -4.2203,-8.08494 -2.2251,-10.72727 0.5537,-0.73333 17.2305,-17.38333 37.0595,-37 29.5033,-29.18733 36.7154,-35.66667 39.7,-35.66667 2.8647,0 6.6377,3.02331 17.5867,14.09236 14.4301,14.58839 16.3673,18.3014 12.2728,23.52374 -2.5919,3.3058 -93.5962,49.05057 -97.5809,49.05057 -1.9811,0 -4.9817,-1.4414 -6.813,-3.27273 z M 513.16003,706.9303 c -2.72238,-1.90877 -2.62088,-2.18541 6.2121,-16.93032 1.75722,-2.93333 4.43163,-7.43333 5.94312,-10 1.51151,-2.56666 4.25474,-7.06666 6.09608,-10 1.84134,-2.93333 4.26828,-7.13333 5.39323,-9.33333 1.12493,-2.2 3.49145,-6.4 5.25892,-9.33333 1.76747,-2.93334 4.23736,-7.28334 5.48865,-9.66667 2.86699,-5.46073 7.09814,-5.69233 12.17923,-0.66667 6.53676,6.46547 15.57763,18.02296 23.2068,29.66667 16.69307,25.47711 19.33523,34.11744 11.06183,36.17401 -2.2,0.54687 -20.73179,1.18143 -41.18175,1.41015 -28.92684,0.32352 -37.73156,0.0304 -39.65821,-1.32051 z m 269.41774,-0.0488 c -2.4905,-0.8011 -3.86532,-2.9394 -3.89071,-6.05128 -0.0344,-4.22178 7.9378,-19.39958 18.54675,-35.3099 14.53542,-21.79887 14.51654,-21.7694 16.99734,-26.52038 3.24167,-6.2081 6.98312,-5.68184 14.2187,2 16.65149,17.67848 39.51073,54.07664 37.40621,59.56094 -0.84788,2.20952 -9.4852,5.159 -11.48621,3.9223 -0.66755,-0.41257 -11.52386,-0.0972 -24.12512,0.70096 -30.17955,1.91142 -45.3249,2.45072 -47.66696,1.69736 z m 296.69493,-8.82096 c -1.8,-1.8 -3.2727,-4.58472 -3.2727,-6.18828 0,-2.77216 10.0458,-26.68532 24.0374,-57.21866 3.5317,-7.70715 9.699,-21.50715 13.7051,-30.66667 12.3027,-28.12862 27.0017,-61.19537 34.6673,-77.98698 7.6983,-16.86315 10.1014,-19.33786 17.0696,-17.57823 1.753,0.44267 15.0372,12.71305 29.5206,27.26752 23.9653,24.08307 26.3333,26.87412 26.3333,31.03813 0,4.26027 -4.4786,9.05408 -65.0152,69.59068 -59.4016,59.40163 -65.3933,65.01527 -69.394,65.01527 -2.8712,0 -5.5054,-1.12672 -7.6514,-3.27274 z M 241.23241,673.87022 c -1.77783,-1.90469 -5.63242,-4.75469 -8.56575,-6.33333 -5.09708,-2.74309 -6.69311,-2.85031 -36.0292,-2.42028 -28.45249,0.41707 -31.31045,0.24292 -39.10494,-2.38287 -11.04123,-3.7195 -16.62744,-7.40164 -25.63355,-16.89618 -9.93725,-10.47623 -12.40948,-17.15063 -11.65742,-31.47215 0.79843,-15.20433 5.69947,-24.33446 21.72999,-40.48073 13.30071,-13.39673 21.78487,-17.89141 33.74514,-17.87725 11.47058,0.0136 16.15336,2.22709 26.38048,12.46989 12.51005,12.52923 14.40631,16.30895 14.47694,28.856 0.0631,11.19359 -1.57697,15.34152 -9.55859,24.1762 -7.26002,8.03598 -13.91718,10.96042 -23.06242,10.13117 C 171.28012,630.49154 160,622.87934 160,615.47634 c 0,-8.83605 13.75486,-16.72805 18.72261,-10.74227 2.54933,3.07176 8.19875,1.85272 10.49976,-2.26567 1.82247,-3.26185 1.73303,-3.88203 -1.17104,-8.12023 -3.95875,-5.77741 -10.54237,-10.34818 -14.90525,-10.34818 -4.13039,0 -14.2148,6.51696 -17.9938,11.62833 -4.68587,6.33797 -8.48562,14.72241 -8.48562,18.72417 0,5.18699 6.42927,14.88659 12.76594,19.25949 10.90574,7.52602 14.15082,7.98995 48.73641,6.96763 35.89085,-1.06091 41.91918,-0.0877 51.78868,8.36015 4.51762,3.86693 5.37564,5.40516 5.37564,9.63738 0,4.36799 -0.96219,5.94602 -7.25352,11.8961 -8.27608,7.82718 -12.00963,8.57998 -16.8474,3.39698 z m 723.82185,-22.20357 c -2.48744,-1.95364 -11.72095,-22.65501 -11.72095,-26.27819 0,-3.25025 9.94571,-15.78382 13.98545,-17.62445 3.98538,-1.81586 9.54156,-0.47249 11.25016,2.72006 1.94348,3.63142 5.74495,29.09311 4.79195,32.09577 -1.21969,3.8429 -9.67193,10.75348 -13.15245,10.75348 -1.66766,0 -3.98703,-0.75 -5.15416,-1.66667 z m 61.61234,-1 c -1.4666,-1.46667 -2.6717,-4.01667 -2.6779,-5.66667 -0.01,-1.65 -0.9053,-21.49113 -1.998,-44.09139 -1.2307,-25.45386 -1.5195,-41.94458 -0.759,-43.33334 0.6752,-1.23306 9.8708,-10.79193 20.4346,-21.24193 21.7678,-21.53316 23.3377,-22.26265 31.1337,-14.46667 3.1777,3.17775 4.5333,5.75183 4.5333,8.60816 0,2.24116 -5.1403,19.85116 -11.4229,39.13334 -6.2826,19.28218 -14.7214,45.2585 -18.7529,57.72517 -4.0315,12.46666 -8.3059,23.41666 -9.4986,24.33333 -3.2022,2.46104 -7.9644,2.02781 -10.9923,-1 z M 648.56936,571.6004 c -2.18379,-1.22377 -2.44075,-3.94439 -0.68806,-7.28517 0.66807,-1.27339 2.90574,-5.91524 4.97262,-10.31524 2.06686,-4.4 4.74094,-9.5 5.94238,-11.33334 24.67172,-37.64765 27.01492,-40.73074 30.63222,-40.30458 3.96616,0.46725 14.98968,12.09449 24.30676,25.63792 9.6616,14.04422 11.59513,17.23014 17.47598,28.79532 4.32863,8.51261 4.4262,12.2349 0.36126,13.7804 -3.95131,1.50229 -80.46531,2.44686 -83.00316,1.02469 z m -49.504,-68.27121 c -1.57371,-1.10228 -3.47739,-3.95228 -4.23037,-6.33334 -2.79296,-8.83166 -40.16834,-206.00294 -40.16834,-211.90534 0,-10.96765 1.67803,-11.9045 26.15215,-14.60089 31.26391,-3.44445 35.90881,-3.30896 40.34832,1.17704 3.45782,3.49404 3.8415,5.2768 8.14945,37.86539 l 4.52079,34.19871 24.41464,0.96362 c 13.42806,0.52997 35.40124,0.52997 48.8293,0 l 24.41464,-0.96362 4.52079,-34.19871 c 4.30795,-32.58859 4.69163,-34.37135 8.14945,-37.86539 4.43951,-4.486 9.08441,-4.62149 40.34832,-1.17704 24.50273,2.69955 26.15524,3.62591 26.1482,14.65808 -0.005,9.04004 -39.4568,211.8307 -41.94992,215.63566 -3.03697,4.63503 -7.24613,5.12655 -21.74273,2.53901 -14.11755,-2.51986 -19.49093,-4.64626 -21.57325,-8.53709 -1.26015,-2.35463 -0.84554,-48.47085 0.57948,-64.45196 l 0.56473,-6.33333 h -43.87436 -43.87436 l 0.56457,6.33333 c 0.31051,3.48334 0.87538,18.95963 1.25526,34.39178 0.75594,30.70955 0.4756,32.13489 -6.89236,35.04142 -4.20275,1.65792 -24.49832,5.5668 -28.90372,5.5668 -1.58916,0 -4.17696,-0.90187 -5.75068,-2.00413 z m 77.27446,-205.66253 c -1.44224,-1.28333 -14.1371,-18.05777 -28.21081,-37.27653 l -25.58855,-34.9432 -10.27023,3.82528 c -5.64863,2.10389 -38.09324,14.37833 -72.09912,27.27653 -34.0059,12.89819 -63.58316,23.45125 -65.72728,23.45125 -9.1298,0 -13.57397,-11.57932 -7.47909,-19.48685 7.75241,-10.05805 137.74186,-165.552897 140.59373,-168.179809 2.12925,-1.961307 4.9623,-3.011368 8.18253,-3.032832 4.68445,-0.03123 6.4437,1.519471 35.92565,31.666671 l 31,31.69949 31,-31.69949 c 29.48195,-30.1472 31.2412,-31.697895 35.92565,-31.666671 3.22023,0.02147 6.05328,1.071525 8.18253,3.032832 2.85187,2.626912 132.84132,158.121759 140.59373,168.179809 6.09488,7.90753 1.65071,19.48685 -7.47909,19.48685 -2.14412,0 -31.72138,-10.55306 -65.72728,-23.45125 -34.00588,-12.8982 -66.45049,-25.17264 -72.09912,-27.27653 l -10.27023,-3.82528 -25.58855,34.9432 c -14.07371,19.21876 -26.76857,35.9932 -28.21081,37.27653 -1.44224,1.28333 -4.28931,2.33333 -6.32683,2.33333 -2.03752,0 -4.88459,-1.05 -6.32683,-2.33333 z"
     id="path3777"
     inkscape:connector-curvature="0"
     sodipodi:nodetypes="cccssccccssccccccccccccccscccccccscccscssscsccccccsccccscssccscccscccscsccccsscccccscccccccccccccccsccccsccccscscscssscsccscsssccscsssccscscccsccssccccsccsscccssccssssccccscccccscccccsccssscsccscsccccsccccsscscsscscscsscscccsccccsccscccscscccsscccccccccscssscsscssccccscccccccscscsssssssscscssscsscccscsccssssscccscccscccccsscccsssccsscccccccccsssssscccccccscccccccccccccscscccssccscccccccccccccccccccccssccccssscsccscsscsccccscsccccccsssccsscccccccccccccccscsscssscsccccccccsscssscscsssccsscsccscsssssssccssscsscccsccsssccssccsscsccsccccccssscsscccccccsccsscscsscsscccsccsccscsscsssscscsscsccccsssscsscssssccscccccccscccccccccsscsccscccccsssssssssssccscssscccssccssccssccsccsccccccscscccscscccccscccccsssccccsccsscscccsscsssscscssccssscscccccccssscccccccssccccsscsccccscscccccccccscscssccsscccssscccssccssss" />
  <path
     style="fill:#000000;stroke-width:1.33333325"
     d=""
     id="path3775"
     inkscape:connector-curvature="0" />
  <path
     style="fill:#000000;stroke-width:1.33333325"
     d=""
     id="path3773"
     inkscape:connector-curvature="0" />
</svg>
